<svg aria-hidden="true" style="width:0;height:0;position:absolute;overflow:hidden" xmlns="http://www.w3.org/2000/svg"><defs><symbol id="icon-social-instagram" viewBox="0 0 32 32"><path d="M16 0c4.356 0 4.892.032 6.596.094 1.672.064 2.84.348 3.88.758 1.074.41 1.958.946 2.84 1.83.886.884 1.42 1.768 1.832 2.84.41 1.042.694 2.21.758 3.882.062 1.704.094 2.24.094 6.596s-.032 4.892-.094 6.596c-.064 1.672-.348 2.84-.758 3.88a7.736 7.736 0 0 1-1.829 2.839l-.001.001c-.884.886-1.768 1.42-2.84 1.832-1.042.41-2.21.694-3.882.758-1.704.062-2.24.094-6.596.094s-4.892-.032-6.596-.094c-1.672-.064-2.84-.348-3.88-.758a7.728 7.728 0 0 1-2.839-1.829l-.001-.001a7.712 7.712 0 0 1-1.815-2.787l-.017-.053c-.41-1.042-.694-2.21-.758-3.882C.032 20.892 0 20.356 0 16s.032-4.892.094-6.596c.064-1.672.348-2.84.758-3.88.41-1.074.946-1.958 1.83-2.84.884-.886 1.768-1.42 2.84-1.832C6.564.442 7.732.158 9.404.094 11.108.032 11.644 0 16 0zm0 2.082c-4.544 0-5.08.032-6.848.096-1.64.062-2.556.38-3.156.6-1.546.63-2.588 1.672-3.22 3.218-.22.6-.536 1.514-.6 3.156-.06 1.768-.094 2.304-.094 6.848s.032 5.08.096 6.848c.062 1.64.38 2.556.6 3.156.63 1.546 1.672 2.588 3.218 3.22.6.22 1.514.536 3.156.6 1.768.06 2.304.094 6.848.094s5.08-.032 6.848-.096c1.64-.062 2.556-.38 3.156-.6 1.546-.63 2.588-1.672 3.22-3.218.22-.6.536-1.514.6-3.156.06-1.768.094-2.304.094-6.848s-.032-5.08-.096-6.848c-.062-1.64-.38-2.556-.6-3.156-.63-1.546-1.672-2.588-3.218-3.22-.6-.22-1.514-.536-3.156-.6-1.768-.06-2.304-.094-6.848-.094zm0 20.324A6.411 6.411 0 0 0 22.406 16 6.41 6.41 0 0 0 16 9.594 6.41 6.41 0 0 0 9.594 16 6.41 6.41 0 0 0 16 22.406zm0-14.612h.018a8.188 8.188 0 0 1 8.188 8.188v.019V16v.018a8.188 8.188 0 0 1-8.188 8.188h-.019H16h-.018a8.188 8.188 0 0 1-8.188-8.188v-.019V16v-.018a8.188 8.188 0 0 1 8.188-8.188h.019H16zm10.478-.314c0 1.072-.884 1.892-1.958 1.892h-.032a1.86 1.86 0 0 1-1.86-1.86v-.034.002c0-1.074.82-1.958 1.892-1.958 1.074 0 1.958.884 1.958 1.958z"/></symbol><symbol id="icon-social-tumblr" viewBox="0 0 32 32"><path d="M17.524 2v6.992h7.34v2.998h-7.308l-.01 8.7c0 1.616.088 2.654.268 3.114.28.726 1.294 1.656 3.18 1.656 1.46 0 3.434-.42 4.912-1.476v4.664c-1.232.56-2.38.788-3.378 1.014-1 .226-2.082.34-3.244.34-1.294 0-5.028-.036-6.56-3.762-.276-.67-.414-1.644-.414-2.92V11.994H8.094l.02-3.064C9.51 8.93 13.7 8.12 13.7 2h3.826zm0-2H13.7c-1.16 0-2.096.896-2.096 2 0 4.574-2.672 4.93-3.49 4.93-1.152 0-2.088.89-2.094 1.99L6 11.984v.001c0 .558.234 1.062.609 1.418l.001.001a2.129 2.129 0 0 0 1.484.588h2.12v9.328c0 1.542.184 2.738.56 3.65.946 2.296 3.186 5.03 8.51 5.03 1.318 0 2.572-.132 3.726-.392l.23-.052c.978-.22 2.226-.494 3.568-1.104.356-.16.658-.418.868-.736.202-.3.323-.67.324-1.068v-4.664a1.923 1.923 0 0 0-.317-1.057l.005.007a2.08 2.08 0 0 0-.832-.731l-.012-.005a2.158 2.158 0 0 0-2.198.19l.006-.004c-1.246.89-2.84 1.078-3.66 1.078-.836 0-1.148-.29-1.216-.368-.036-.156-.136-.742-.136-2.404l.008-6.7h5.216c1.156 0 2.094-.896 2.094-2V8.992c0-1.104-.938-2-2.094-2h-5.246V2c0-1.104-.938-2-2.094-2z"/></symbol><symbol id="icon-social-twitter" viewBox="0 0 32 32"><path d="M21.384 3.994c1.652 0 3.144.674 4.194 1.756a11.765 11.765 0 0 0 3.698-1.38l-.056.03a5.648 5.648 0 0 1-2.495 3.058l-.027.014a11.754 11.754 0 0 0 3.378-.902L30 6.6a11.629 11.629 0 0 1-2.832 2.852l-.036.024c.01.24.016.48.016.718 0 7.344-5.778 15.812-16.344 15.812h-.023a16.58 16.58 0 0 1-8.85-2.543l.069.041c.421.053.908.084 1.402.084 2.68 0 5.152-.896 7.13-2.405l-.029.021c-2.516-.042-4.638-1.65-5.366-3.858a5.885 5.885 0 0 0 2.635-.103l-.041.01c-2.628-.508-4.608-2.756-4.608-5.45v-.07c.774.416 1.66.666 2.602.696a5.513 5.513 0 0 1-2.556-4.627v-.001c0-1.02.284-1.974.78-2.792 2.889 3.388 7.088 5.586 11.803 5.805l.037.001a5.242 5.242 0 0 1-.152-1.266c0-3.068 2.572-5.556 5.746-5.556zM30 6.598zM21.384 2c-3.924 0-7.176 2.86-7.676 6.556a14.526 14.526 0 0 1-8.213-4.808l-.017-.02a1.996 1.996 0 0 0-3.237.246l-.005.009A7.313 7.313 0 0 0 1.17 7.805c0 .931.172 1.822.487 2.643l-.017-.051a1.99 1.99 0 0 0-.516 1.336v.072a7.45 7.45 0 0 0 2.06 5.124 2.001 2.001 0 0 0 .06 1.054l-.004-.014a7.543 7.543 0 0 0 2.285 3.381l.011.009a9.717 9.717 0 0 1-2.157.236c-.403 0-.8-.024-1.19-.07l.047.005a1.997 1.997 0 0 0-2.118 1.306l-.004.014a1.99 1.99 0 0 0 .818 2.347l.008.005c2.795 1.757 6.195 2.8 9.837 2.8h.024-.001c11.37 0 18.21-8.878 18.344-17.548a13.51 13.51 0 0 0 2.422-2.612l.028-.042a1.992 1.992 0 0 0-.448-2.834l-.006-.004a1.992 1.992 0 0 0-1.912-2.55h-.008c-.366 0-.71.099-1.005.271l.009-.005c-.66.38-1.368.68-2.112.898a7.844 7.844 0 0 0-4.728-1.574z"/></symbol><symbol id="icon-social-youtube" viewBox="0 0 32 32"><path d="M29.384 5.512C28.518 4.864 26.104 4 15.992 4 5.154 4 3.546 4.992 3.032 5.316.282 7.036.022 14.648 0 16.192c.032 2.04.35 8.82 3.028 10.5C3.544 27.014 5.142 28 15.992 28c10.12 0 12.53-.86 13.392-1.506 2.34-1.754 2.61-7.8 2.616-10.328-.006-2.036-.21-8.848-2.616-10.654zm-1.168 19.292c-.348.26-2.346 1.114-12.224 1.114-9.55 0-11.554-.772-11.934-1.01-.964-.604-1.98-3.804-2.06-8.722.08-4.908 1.11-8.49 2.062-9.086.38-.24 2.392-1.018 11.932-1.018 9.87 0 11.874.86 12.224 1.12.856.644 1.772 4.026 1.786 8.97-.014 5.02-.936 7.994-1.786 8.632zm-5.71-9.622-8.988-5.75a.972.972 0 0 0-1.378.361l-.003.005a1.058 1.058 0 0 0-.136.524v11.502c0 .276.106.54.292.736a.977.977 0 0 0 1.228.154l-.004.002 8.988-5.752c.292-.19.482-.515.482-.884v-.015c0-.369-.19-.693-.478-.881l-.004-.002zM14 19.98v-7.812l6.056 3.904L14 19.98z"/></symbol><symbol id="icon-logo" viewBox="0 0 32 32"><path d="M31.979 15.799C31.332 3.75 25.522 1.988 20.839 1.988c-1.183.001-2.294.113-3.232.201-.008-.548.014-1.135.1-1.783.002-.009-.002-.017-.003-.026.001-.005.003-.009.003-.014 0-.202-.354-.366-.793-.366-.437 0-.791.164-.791.366-.12.654-.283 1.298-.489 1.926-6.18.04-14.32 1.09-15.563 13.098C-.83 24.105 7.114 32 16.051 32S32.45 24.557 31.98 15.799zM17.939 3.878c.218-.021.444-.042.677-.062-.279.121-.551.246-.806.371-.019-.09-.032-.198-.049-.294l.178-.016zm-2.965.136c-.07.156-.138.306-.204.443a5.023 5.023 0 0 0-.498-.424c.234-.009.467-.014.701-.019zm12.038 21.315a14.62 14.62 0 0 1-10.962 4.957c-4.27 0-8.512-2.025-11.347-5.417-2.297-2.749-3.378-6.048-3.042-9.29.63-6.085 3.142-8.991 6.367-10.367 3.124-.622 6.064.52 6.064.52S7.41 3.955 4.79 13.154c3.298-5.508 8.972-3.887 10.465-5.917 0 3.925 2.662 2.021 4.008 3.789 1.731 2.273 2.365 6.346 4.356 7.149-1.962-4.512 1.25-4.336-3.262-10.391 2.377 1.582 3.61-.019 6.855 1.407-2.777-4.863-7.22-3.457-7.22-3.457s1.808-1.765 3.725-1.716c3.238.81 6.217 3.537 6.666 11.883.182 3.409-1.014 6.758-3.37 9.431z"/></symbol><symbol id="icon-email" viewBox="0 0 32 32"><path d="M28.444 5.333H3.555a1.776 1.776 0 0 0-1.778 1.778v17.778a1.776 1.776 0 0 0 1.778 1.778h24.889a1.781 1.781 0 0 0 1.778-1.778V7.111a1.776 1.776 0 0 0-1.778-1.778zm-1.368 19.556H5.032l6.222-6.436-1.28-1.236-6.418 6.64V8.461l11.049 10.996a1.779 1.779 0 0 0 2.506 0L28.444 8.186v15.556L21.902 17.2l-1.253 1.253 6.427 6.436zM4.72 7.111h22.284L15.857 18.196 4.719 7.111z"/></symbol><symbol id="icon-location" viewBox="0 0 32 32"><path d="M25 13a9 9 0 1 0-18 0c0 3.692 2.954 8.504 9 14.268 6.046-5.764 9-10.576 9-14.268zm-9 17C8.666 23.334 5 17.666 5 13a11 11 0 0 1 22 0c0 4.666-3.666 10.334-11 17z"/><path d="M16 16a3.004 3.004 0 0 0 3-3 3.004 3.004 0 0 0-3-3 2.998 2.998 0 0 0-3 3 2.998 2.998 0 0 0 3 3zm0 2a4.997 4.997 0 0 1-5-5 4.997 4.997 0 0 1 5-5 4.997 4.997 0 0 1 5 5 4.997 4.997 0 0 1-5 5z"/></symbol><symbol id="icon-burger" viewBox="0 0 48 32"><path d="M0 5.333V0h48v5.333H0zm0 13.334h48v-5.333H0v5.333zM0 32h48v-5.333H0V32z"/></symbol><symbol id="icon-close" viewBox="0 0 32 32"><path d="M16 12.648 27.733.915l3.352 3.352L19.352 16l11.733 11.733-3.352 3.352L16 19.352 4.267 31.085.915 27.733 12.648 16 .915 4.267 4.267.915 16 12.648z"/></symbol><symbol id="icon-gallery_arrow-left" viewBox="0 0 32 32"><path fill="#f3f3f3" d="M21.733 27.718c.171-.185.267-.433.267-.691s-.096-.506-.267-.691L12.166 16l9.567-10.334c.171-.185.267-.433.267-.691s-.096-.506-.267-.691a.878.878 0 0 0-.64-.284c-.119 0-.237.025-.347.074s-.209.12-.293.21L10.279 15.278C10.1 15.471 10 15.73 10 16s.1.529.279.722l10.174 10.994a.878.878 0 0 0 .64.284c.119 0 .237-.025.347-.074s.209-.12.293-.21v.002z"/></symbol><symbol id="icon-gallery_arrow-right" viewBox="0 0 32 32"><path fill="#f3f3f3" d="M10.267 4.282c-.171.185-.267.433-.267.691s.096.506.267.691L19.834 16l-9.567 10.334c-.171.185-.267.433-.267.691s.096.506.267.691a.878.878 0 0 0 .64.284c.119 0 .237-.025.347-.074s.209-.12.293-.21l10.174-10.994C21.9 16.529 22 16.27 22 16s-.1-.529-.279-.722L11.547 4.284a.878.878 0 0 0-.64-.284c-.119 0-.237.025-.347.074s-.209.12-.293.21v-.002z"/></symbol><symbol id="icon-ep_arrow-right" viewBox="0 0 32 32"><path fill="#f3f3f3" style="fill:var(--color1,#f3f3f3)" d="M4.666 21.348a.958.958 0 0 0 1.336 0L16 11.602l9.996 9.746a.958.958 0 0 0 1.336 0 .925.925 0 0 0 .276-.652.896.896 0 0 0-.276-.652L16.698 9.68a1 1 0 0 0-1.396 0L4.668 20.044a.925.925 0 0 0-.276.652.896.896 0 0 0 .276.652h-.002z"/><symbol id="icon-mobal-buy-cross" viewBox="0 0 32 32"><path d="m16 14.115 6.6-6.6L24.485 9.4l-6.6 6.6 6.6 6.6-1.885 1.885-6.6-6.6-6.6 6.6L7.515 22.6l6.6-6.6-6.6-6.6L9.4 7.515l6.6 6.6z"/></symbol><symbol id="icon-select-arrow" viewBox="0 0 32 32"><path d="m16 18.667-5.333-5.333h10.667l-5.333 5.333z"/></symbol><symbol id="icon-icon-check" viewBox="0 0 32 32"><path d="M4 1h24a4 4 0 0 1 4 4v22a4 4 0 0 1-4 4H4a4 4 0 0 1-4-4V5a4 4 0 0 1 4-4z"/><path fill="#fff" style="fill:var(--color2,#fff);stroke:var(--color2,#fff)" stroke="#fff" stroke-width=".4" d="m7.914 16.503-.138-.131-2.067 1.958 7.282 6.947 15.298-14.594-2.053-1.959-13.245 12.623-5.077-4.844z"/></symbol></symbol></defs></svg>